<svg xmlns="http://www.w3.org/2000/svg" width="283.461" height="84.849" viewBox="0 0 283.461 84.849">
  <g id="LOGO_BOLD_CLAIM_01" transform="translate(141.731 42.424)">
    <g id="Gruppe_664" data-name="Gruppe 664" transform="translate(-141.731 -42.424)">
      <path id="Pfad_2348" data-name="Pfad 2348" d="M25.3,33.889,37.031,22.16a.587.587,0,0,0,.171-.413V18.513a.585.585,0,0,0-.813-.539L24.66,22.928a.585.585,0,0,0-.357.539V33.476A.584.584,0,0,0,25.3,33.889Z" fill="#fff"/>
      <path id="Pfad_2349" data-name="Pfad 2349" d="M54.367,37.421l-3.355-3.355a.584.584,0,0,0-.827,0L30.563,53.687a1.21,1.21,0,0,1-1.71,0L25.3,50.136a.584.584,0,0,0-1,.413V56.37a.587.587,0,0,0,.359.54l11.73,4.9a.585.585,0,0,0,.81-.54V55.914a1.208,1.208,0,0,1,.354-.855L54.367,38.248A.585.585,0,0,0,54.367,37.421Z" fill="#fff"/>
      <path id="Pfad_2350" data-name="Pfad 2350" d="M55.005,45.958,43.275,57.687a.585.585,0,0,0-.171.413v3.171a.585.585,0,0,0,.81.54l11.73-4.9A.587.587,0,0,0,56,56.37v-10A.584.584,0,0,0,55.005,45.958Z" fill="#fff"/>
      <path id="Pfad_2351" data-name="Pfad 2351" d="M39.88,0A39.88,39.88,0,1,0,79.759,39.879,39.88,39.88,0,0,0,39.88,0ZM61.906,59.884A1.209,1.209,0,0,1,61.163,61L40.62,69.585a1.205,1.205,0,0,1-.932,0L19.145,61a1.209,1.209,0,0,1-.744-1.116V19.967a1.211,1.211,0,0,1,.739-1.114l20.543-8.677a1.21,1.21,0,0,1,.941,0l20.544,8.677a1.21,1.21,0,0,1,.738,1.114Z" fill="#fff"/>
      <path id="Pfad_2352" data-name="Pfad 2352" d="M55.646,22.928,43.917,17.974a.585.585,0,0,0-.813.539v5.42a1.21,1.21,0,0,1-.354.855L25.939,41.6a.584.584,0,0,0,0,.827l3.355,3.356a.585.585,0,0,0,.827,0L49.743,26.16a1.21,1.21,0,0,1,1.71,0l3.552,3.551a.584.584,0,0,0,1-.413V23.467A.585.585,0,0,0,55.646,22.928Z" fill="#fff"/>
      <path id="Pfad_2353" data-name="Pfad 2353" d="M110.163,19.621c-8.215,0-13.9,4.783-13.9,10.073V34.14c0,5.346,3.546,8.215,8.667,8.215H115.4a2.518,2.518,0,0,1,2.758,2.758v4.951c0,2.983-3.658,4.728-7.992,4.728s-7.99-1.745-7.99-4.728v-.731a1.129,1.129,0,0,0-1.125-1.126H97.39a1.13,1.13,0,0,0-1.126,1.126v.731c0,5.29,5.684,10.073,13.9,10.073s13.9-4.783,13.9-10.073V45c0-5.346-3.544-8.216-8.665-8.216H104.931a2.517,2.517,0,0,1-2.758-2.757V29.694c0-2.982,3.658-4.727,7.99-4.727s7.992,1.745,7.992,4.727v.619a1.128,1.128,0,0,0,1.125,1.126h3.658a1.128,1.128,0,0,0,1.124-1.126v-.619C124.062,24.4,118.379,19.621,110.163,19.621Z" fill="#fff"/>
      <path id="Pfad_2354" data-name="Pfad 2354" d="M161.484,30.538c0-5.852-5.458-10.917-14.8-10.917s-14.744,5.065-14.744,10.917V49.22c0,5.853,5.4,10.917,14.744,10.917s14.8-5.064,14.8-10.917ZM155.576,49.22c0,3.546-4,5.572-8.891,5.572s-8.835-2.026-8.835-5.572V30.538c0-3.545,3.939-5.571,8.835-5.571s8.891,2.026,8.891,5.571Z" fill="#fff"/>
      <path id="Pfad_2355" data-name="Pfad 2355" d="M193.73,58.449v-3.1a1.129,1.129,0,0,0-1.126-1.125H176.679a.533.533,0,0,1-.563-.563V21.309a1.128,1.128,0,0,0-1.125-1.125h-3.658a1.128,1.128,0,0,0-1.125,1.125v37.14a1.129,1.129,0,0,0,1.125,1.126H192.6A1.13,1.13,0,0,0,193.73,58.449Z" fill="#fff"/>
      <path id="Pfad_2356" data-name="Pfad 2356" d="M206.223,52.484h15.306a.932.932,0,0,1,.957.732l1.857,5.4a1.253,1.253,0,0,0,1.181.957h3.32a1.235,1.235,0,0,0,1.182-1.745L217.252,21.14a1.279,1.279,0,0,0-1.238-.956h-4.276a1.332,1.332,0,0,0-1.238.956L197.726,57.83a1.235,1.235,0,0,0,1.181,1.745h3.321a1.32,1.32,0,0,0,1.181-.957l1.858-5.4A.93.93,0,0,1,206.223,52.484Zm1.351-6.19,5.739-17.05a.586.586,0,0,1,1.126,0l5.74,17.05a.621.621,0,0,1-.619.845H208.193A.621.621,0,0,1,207.574,46.294Z" fill="#fff"/>
      <path id="Rechteck_279" data-name="Rechteck 279" d="M1.126,0h13.73a1.126,1.126,0,0,1,1.126,1.126V3.94a1.125,1.125,0,0,1-1.125,1.125H1.126A1.126,1.126,0,0,1,0,3.939V1.126A1.126,1.126,0,0,1,1.126,0Z" transform="translate(234.585 39.26)" fill="#fff"/>
      <path id="Pfad_2357" data-name="Pfad 2357" d="M283.26,57.886l-11.31-17.5a1.725,1.725,0,0,1,0-1.8L282.7,21.816a1.021,1.021,0,0,0-.9-1.632h-4a1.548,1.548,0,0,0-1.238.675L268.63,33.633a.736.736,0,0,1-1.238,0l-7.935-12.774a1.544,1.544,0,0,0-1.237-.675h-3.995a1.021,1.021,0,0,0-.9,1.632l10.748,16.713a1.826,1.826,0,0,1,0,1.857l-11.311,17.5a1.059,1.059,0,0,0,.9,1.689h4.165a1.545,1.545,0,0,0,1.237-.676l8.329-13.393a.736.736,0,0,1,1.238,0L276.958,58.9a1.548,1.548,0,0,0,1.238.676h4.164A1.06,1.06,0,0,0,283.26,57.886Z" fill="#fff"/>
    </g>
  </g>
</svg>
