<svg xmlns="http://www.w3.org/2000/svg" width="126.553" height="30" viewBox="0 0 126.553 30">
  <g id="LOGO_1" transform="translate(63.276 15)">
    <g id="Gruppe_548" data-name="Gruppe 548" transform="translate(-63.276 -15)">
      <g id="Gruppe_547" data-name="Gruppe 547">
        <path id="Pfad_2035" data-name="Pfad 2035" d="M10.713.048.372,4.416A.609.609,0,0,0,0,4.977V25.07a.609.609,0,0,0,.374.562l10.341,4.321a.608.608,0,0,0,.47,0l10.341-4.321a.609.609,0,0,0,.374-.562V4.977a.609.609,0,0,0-.372-.561L11.186.048A.609.609,0,0,0,10.713.048ZM3.151,6.467l5.9-2.494a.294.294,0,0,1,.409.271V5.872a.294.294,0,0,1-.086.208l-5.9,5.9a.3.3,0,0,1-.5-.208V6.738A.3.3,0,0,1,3.151,6.467ZM2.97,23.3v-2.93a.3.3,0,0,1,.5-.208L5.261,21.95a.608.608,0,0,0,.861,0L16,12.073a.3.3,0,0,1,.416,0L18.1,13.762a.294.294,0,0,1,0,.417L9.642,22.641a.609.609,0,0,0-.178.43v2.7a.294.294,0,0,1-.408.271l-5.9-2.467A.3.3,0,0,1,2.97,23.3Zm15.776.272-5.9,2.467a.3.3,0,0,1-.408-.271v-1.6a.3.3,0,0,1,.087-.208l5.9-5.9a.294.294,0,0,1,.5.208V23.3A.294.294,0,0,1,18.747,23.572ZM15.776,8.094,5.9,17.971a.3.3,0,0,1-.416,0L3.794,16.282a.294.294,0,0,1,0-.417L12.256,7.4a.608.608,0,0,0,.178-.43V4.244a.3.3,0,0,1,.409-.271l5.9,2.494a.294.294,0,0,1,.18.271V9.673a.294.294,0,0,1-.5.208L16.637,8.094A.609.609,0,0,0,15.776,8.094Z" transform="translate(0 0)" fill="#fff"/>
        <g id="Gruppe_546" data-name="Gruppe 546" transform="translate(32.323 4.803)">
          <path id="Pfad_2036" data-name="Pfad 2036" d="M75.8,15.489a.567.567,0,0,1-.566-.566v-.312c0-1.5-1.842-2.379-4.023-2.379s-4.022.878-4.022,2.379v2.182a1.267,1.267,0,0,0,1.388,1.388h5.268c2.578,0,4.362,1.445,4.362,4.135v2.55c0,2.662-2.861,5.07-7,5.07s-7-2.408-7-5.07V24.5a.568.568,0,0,1,.567-.567h1.841a.568.568,0,0,1,.566.567v.368c0,1.5,1.841,2.379,4.022,2.379s4.023-.878,4.023-2.379V22.372a1.267,1.267,0,0,0-1.388-1.388H68.576c-2.578,0-4.363-1.445-4.363-4.136V14.611c0-2.662,2.861-5.07,7-5.07s7,2.408,7,5.07v.312a.567.567,0,0,1-.566.566Z" transform="translate(-64.213 -9.541)" fill="#fff"/>
          <path id="Pfad_2037" data-name="Pfad 2037" d="M114.761,15.036v9.4c0,2.946-2.747,5.5-7.449,5.5s-7.422-2.55-7.422-5.5v-9.4c0-2.946,2.719-5.5,7.422-5.5S114.761,12.09,114.761,15.036Zm-2.974,0c0-1.785-2.011-2.8-4.476-2.8s-4.447,1.019-4.447,2.8v9.4c0,1.784,1.983,2.8,4.447,2.8s4.476-1.02,4.476-2.8Z" transform="translate(-81.931 -9.541)" fill="#fff"/>
          <path id="Pfad_2038" data-name="Pfad 2038" d="M140.565,10.1a.568.568,0,0,1,.566.567V26.957a.268.268,0,0,0,.283.283h8.016a.569.569,0,0,1,.567.566v1.558a.568.568,0,0,1-.567.566H138.723a.568.568,0,0,1-.566-.566V10.67a.568.568,0,0,1,.566-.567Z" transform="translate(-100.936 -9.82)" fill="#fff"/>
          <path id="Pfad_2039" data-name="Pfad 2039" d="M181.885,29.053a.621.621,0,0,1-.6.878h-1.671a.63.63,0,0,1-.594-.482l-.935-2.719a.469.469,0,0,0-.482-.368h-7.7a.468.468,0,0,0-.481.368l-.935,2.719a.665.665,0,0,1-.595.482h-1.671a.621.621,0,0,1-.594-.878l6.43-18.469a.671.671,0,0,1,.623-.482h2.152a.644.644,0,0,1,.623.482Zm-7.846-14.39a.3.3,0,0,0-.567,0l-2.889,8.583a.312.312,0,0,0,.312.425h5.722a.313.313,0,0,0,.312-.425Z" transform="translate(-114.553 -9.82)" fill="#fff"/>
          <path id="Pfad_2040" data-name="Pfad 2040" d="M203.1,31.729a.568.568,0,0,1-.566-.566V29.746a.568.568,0,0,1,.566-.566h6.912a.568.568,0,0,1,.566.566v1.416a.568.568,0,0,1-.566.566Z" transform="translate(-132.907 -19.294)" fill="#fff"/>
          <path id="Pfad_2041" data-name="Pfad 2041" d="M230.269,19.366a.87.87,0,0,0,0,.906l5.693,8.81a.533.533,0,0,1-.453.85h-2.1a.779.779,0,0,1-.623-.34L228.6,22.85a.371.371,0,0,0-.623,0l-4.193,6.742a.777.777,0,0,1-.623.34h-2.1a.533.533,0,0,1-.453-.85l5.694-8.81a.919.919,0,0,0,0-.935l-5.41-8.413a.514.514,0,0,1,.454-.822h2.011a.778.778,0,0,1,.623.34l3.994,6.43a.371.371,0,0,0,.623,0l3.994-6.43a.78.78,0,0,1,.623-.34h2.011a.514.514,0,0,1,.453.822Z" transform="translate(-141.834 -9.82)" fill="#fff"/>
        </g>
      </g>
    </g>
  </g>
</svg>
